<?xml version="1.0" encoding="UTF-8" standalone="no"?> <svg xmlns="http://www.w3.org/2000/svg" xmlns:xlink="http://www.w3.org/1999/xlink" viewBox="0 0 64 64"><defs><style>.cls-1{fill:url(#linear-gradient);}</style><linearGradient id="linear-gradient" x1="4.21" y1="32.44" x2="59.79" y2="32.44" gradientUnits="userSpaceOnUse"><stop offset="0" stop-color="#17a6d7"/><stop offset="1" stop-color="#9d31fe"/></linearGradient></defs><g id="Layer_16" data-name="Layer 16"><path class="cls-1" d="M54.29,28.22A5.53,5.53,0,0,0,57.17,18c1.65-9.7-7.9-9.06-16.56-5.46C35.62-.12,26-.12,21,12.53a38,38,0,0,0-4.72-1.63C15.17,3.6,4.56,5,5.35,12.33c-3.63,5.25,2,13.42,7.87,20.1C-.11,46.6.62,60.49,21,52.33,26,65,35.62,65,40.61,52.33c20.44,8.16,21.1-5.73,7.79-19.9a58.5,58.5,0,0,0,3.79-4.63A5.47,5.47,0,0,0,54.29,28.22Zm0-2a3.52,3.52,0,0,1,0-7A3.52,3.52,0,0,1,54.29,26.22ZM30.81,5c3.07,0,5.91,3.23,8,8.35a68.56,68.56,0,0,0-7.95,4.36,69.8,69.8,0,0,0-7.95-4.37C24.91,8.23,27.74,5,30.81,5ZM42,32.44c0,1.25,0,2.48-.11,3.7a89.26,89.26,0,0,1-11.08,8.65,88.42,88.42,0,0,1-11.08-8.66,60.74,60.74,0,0,1,0-7.39A88.24,88.24,0,0,1,30.8,20.09a86.47,86.47,0,0,1,11.09,8.65C42,30,42,31.18,42,32.44Zm2-1.73c.58.58,1.15,1.15,1.7,1.73-.55.57-1.12,1.15-1.7,1.72C44,33,44,31.85,44,30.71ZM41.66,39a50.38,50.38,0,0,1-2.22,10.63,65.89,65.89,0,0,1-6.8-3.7A88.48,88.48,0,0,0,41.66,39ZM29,46a65.89,65.89,0,0,1-6.8,3.7A50.51,50.51,0,0,1,20,39,91.09,91.09,0,0,0,29,46ZM17.64,34.15C17.06,33.58,16.5,33,16,32.43c.55-.57,1.11-1.15,1.69-1.72C17.61,31.85,17.61,33,17.64,34.15ZM20,25.84a51.07,51.07,0,0,1,2.21-10.62A64.85,64.85,0,0,1,29,18.92,90.4,90.4,0,0,0,20,25.84Zm20.11-1.36a88.21,88.21,0,0,0-7.43-5.57,64.79,64.79,0,0,1,6.81-3.69,51.07,51.07,0,0,1,2.21,10.62C41.14,25.39,40.61,24.93,40.07,24.48ZM10.81,8a3.52,3.52,0,0,1,0,7A3.52,3.52,0,0,1,10.81,8ZM6.2,16.22a4.83,4.83,0,0,1,.14-1.46,5.54,5.54,0,0,0,9.81-1.83,37.66,37.66,0,0,1,4.17,1.48,52.59,52.59,0,0,0-2.54,13.4q-1.7,1.57-3.19,3.15C9.53,25.34,6.37,19.94,6.2,16.22ZM7.33,51.77c-3.62-3.71,2.05-12,7.25-17.87,1,1.05,2.07,2.11,3.2,3.16a52.84,52.84,0,0,0,2.54,13.42C14.17,53,9.38,53.48,7.33,51.77Zm23.48,8.1c-3.07,0-5.91-3.23-7.95-8.35a68.56,68.56,0,0,0,8-4.36,68.56,68.56,0,0,0,8,4.36C36.72,56.64,33.88,59.87,30.81,59.87ZM55.43,49c-.16,5.51-7.32,4.28-14.13,1.52a52.76,52.76,0,0,0,2.54-13.42C45,36,46,35,47,33.9,52.26,39.7,55.43,45.23,55.43,49ZM47,31c-1-1.05-2.07-2.1-3.2-3.15A52.67,52.67,0,0,0,41.3,14.4c7.37-3,15.14-4.18,14,2.88-5.35-1.05-8.76,5.79-4.78,9.43C49.47,28.12,48.32,29.54,47,31Z"/></g></svg>