<?xml version="1.0" encoding="UTF-8" standalone="no"?> <svg xmlns="http://www.w3.org/2000/svg" xmlns:xlink="http://www.w3.org/1999/xlink" viewBox="0 0 64 64"><defs><style>.cls-1{fill:url(#linear-gradient);}</style><linearGradient id="linear-gradient" x1="5.58" y1="31.98" x2="58.44" y2="31.98" gradientUnits="userSpaceOnUse"><stop offset="0" stop-color="#17a6d7"/><stop offset="1" stop-color="#9d31fe"/></linearGradient></defs><g id="Layer_27" data-name="Layer 27"><path class="cls-1" d="M39.14,28.43c12-7.24,7.07-25.76-7.14-25.91-14.21.15-19.15,18.69-7.13,25.92A26.47,26.47,0,0,0,5.58,53.88c0,9.13,5.09,8.78,12.45,5.28,10.69-5,17.3-4.95,28,0,6.73,3.19,12.53,4.3,12.44-5.28A26.48,26.48,0,0,0,39.14,28.43Zm-18.09-12A11,11,0,0,1,32,5.52c14.53.6,14.52,21.3,0,21.9A11,11,0,0,1,21.05,16.47ZM54.39,58.3c-1.09.72-4.2-.61-7.21-1.9-4.2-1.79-9.42-4-15.17-4s-11,2.23-15.16,4c-3,1.29-6.13,2.62-7.21,1.9-.4-.26-1.06-1.18-1.06-4.42a23.43,23.43,0,1,1,46.86,0C55.44,57.12,54.79,58,54.39,58.3Z"/></g></svg>