<?xml version="1.0" encoding="UTF-8" standalone="no"?> <svg width="64" height="64" viewBox="0 0 64 64" fill="none" xmlns="http://www.w3.org/2000/svg">
<path d="M45.31 27.0003C46.8695 24.6037 47.7531 21.8306 47.8673 18.9736C47.9816 16.1165 47.3223 13.2817 45.9592 10.7682C44.596 8.25478 42.5795 6.15602 40.1225 4.69351C37.6656 3.23099 34.8593 2.45898 32 2.45898C29.1407 2.45898 26.3344 3.23099 23.8775 4.69351C21.4205 6.15602 19.404 8.25478 18.0408 10.7682C16.6777 13.2817 16.0184 16.1165 16.1327 18.9736C16.2469 21.8306 17.1305 24.6037 18.69 27.0003C13.8195 29.4614 9.72737 33.2257 6.86903 37.8742C4.01069 42.5228 2.49825 47.8733 2.5 53.3303C2.5 57.3303 3.32 59.6903 5.07 60.8203C7.69 62.4903 11.33 60.8203 15.94 58.6903C20.55 56.5603 26.08 54.0003 32 54.0003C37.92 54.0003 43.54 56.5903 48.06 58.6703C51.35 60.1903 54.15 61.4803 56.44 61.4803C57.3181 61.4976 58.1826 61.2615 58.93 60.8003C60.68 59.6703 61.5 57.2903 61.5 53.3103C61.4981 47.8567 59.9839 42.5104 57.1257 37.8657C54.2676 33.221 50.1775 29.4599 45.31 27.0003V27.0003ZM32 5.50029C34.5474 5.50029 37.0376 6.25569 39.1557 7.67097C41.2739 9.08624 42.9247 11.0978 43.8996 13.4513C44.8744 15.8048 45.1295 18.3946 44.6325 20.8931C44.1355 23.3915 42.9088 25.6865 41.1075 27.4878C39.3062 29.2891 37.0112 30.5158 34.5128 31.0128C32.0143 31.5098 29.4246 31.2547 27.071 30.2799C24.7175 29.305 22.7059 27.6541 21.2907 25.536C19.8754 23.4179 19.12 20.9277 19.12 18.3803C19.1253 14.9659 20.484 11.6929 22.8983 9.2786C25.3126 6.86428 28.5856 5.50558 32 5.50029V5.50029ZM57.31 58.2903C56.08 59.0803 52.79 57.5703 49.31 55.9603C44.53 53.7603 38.58 51.0003 32 51.0003C25.42 51.0003 19.47 53.7603 14.69 56.0003C11.21 57.6103 7.92 59.1203 6.69 58.3303C6.25 58.0003 5.5 57.0003 5.5 53.3303C5.50089 48.3242 6.92086 43.4208 9.59524 39.1889C12.2696 34.957 16.0888 31.5698 20.61 29.4203C22.0857 30.9513 23.855 32.169 25.812 33.0008C27.769 33.8325 29.8736 34.2612 32 34.2612C34.1264 34.2612 36.231 33.8325 38.188 33.0008C40.145 32.169 41.9143 30.9513 43.39 29.4203C47.9112 31.5698 51.7304 34.957 54.4048 39.1889C57.0791 43.4208 58.4991 48.3242 58.5 53.3303C58.5 57.0003 57.75 58.0003 57.31 58.2903Z" fill="url(#paint0_linear_135:13600)"/>
<defs>
<linearGradient id="paint0_linear_135:13600" x1="2.5" y1="32.0003" x2="61.5" y2="32.0003" gradientUnits="userSpaceOnUse">
<stop stop-color="#FF71E6"/>
<stop offset="0.26" stop-color="#F659E7"/>
<stop offset="0.75" stop-color="#E632E8"/>
<stop offset="1" stop-color="#E023E8"/>
</linearGradient>
</defs>
</svg>
