<svg xmlns="http://www.w3.org/2000/svg" xmlns:xlink="http://www.w3.org/1999/xlink" viewBox="0 0 64 64"><defs><style>.cls-1{fill:url(#linear-gradient);}.cls-2{fill:url(#linear-gradient-2);}.cls-3{fill:url(#linear-gradient-3);}.cls-4{fill:url(#linear-gradient-4);}.cls-5{fill:url(#linear-gradient-5);}</style><linearGradient id="linear-gradient" x1="49" y1="6.99" x2="50.99" y2="6.99" gradientUnits="userSpaceOnUse"><stop offset="0" stop-color="#9f2fff"/><stop offset="1" stop-color="#0bb1d3"/></linearGradient><linearGradient id="linear-gradient-2" x1="3" y1="32.5" x2="61" y2="32.5" xlink:href="#linear-gradient"/><linearGradient id="linear-gradient-3" x1="30.03" y1="44" x2="33.97" y2="44" xlink:href="#linear-gradient"/><linearGradient id="linear-gradient-4" x1="20" y1="24" x2="43.94" y2="24" xlink:href="#linear-gradient"/><linearGradient id="linear-gradient-5" x1="25" y1="24.5" x2="39.01" y2="24.5" xlink:href="#linear-gradient"/></defs><g id="PC_PROTECT" data-name="PC PROTECT"><path class="cls-1" d="M49.29,7.71a1,1,0,0,0,1.26.12,1,1,0,1,0-1.26-.12Z"/><path class="cls-2" d="M55.44,6H53a1,1,0,0,0,0,2h2.44A3.57,3.57,0,0,1,59,11.56V39H5V11.56A3.57,3.57,0,0,1,8.56,8H47a1,1,0,0,0,0-2H8.56A5.57,5.57,0,0,0,3,11.56V43.44A5.57,5.57,0,0,0,8.56,49h16.2a7.88,7.88,0,0,0-2,8H19a1,1,0,0,0,0,2H45a1,1,0,0,0,0-2H41.27a7.88,7.88,0,0,0-2-8h16.2A5.57,5.57,0,0,0,61,43.44V11.56A5.57,5.57,0,0,0,55.44,6ZM34.76,49c3.89.38,5.72,4.51,4.45,8H24.79c-1.27-3.47.57-7.6,4.45-8C30,49,34,49,34.76,49Zm20.68-2H8.56A3.57,3.57,0,0,1,5,43.44V41H59v2.44A3.57,3.57,0,0,1,55.44,47Z"/><path class="cls-3" d="M32,42a2,2,0,0,0,0,4A2,2,0,0,0,32,42Z"/><path class="cls-4" d="M20,24A12,12,0,0,0,32,36c15.92-.66,15.92-23.34,0-24A12,12,0,0,0,20,24Zm22,0A10,10,0,0,1,32,34c-13.27-.55-13.26-19.45,0-20A10,10,0,0,1,42,24Z"/><path class="cls-5" d="M26.51,24.14a1,1,0,0,0-1,1.72c.23.08,5.35,3.37,5.51,3.14h0a1.1,1.1,0,0,0,.71-.29l7-7a1,1,0,0,0-1.42-1.42l-6.44,6.45Z"/></g></svg>