<?xml version="1.0" encoding="UTF-8" standalone="no"?> <svg xmlns="http://www.w3.org/2000/svg" xmlns:xlink="http://www.w3.org/1999/xlink" viewBox="0 0 64 64"><defs><style>.cls-1{fill:url(#linear-gradient);}</style><linearGradient id="linear-gradient" x1="3" y1="31.79" x2="61" y2="31.79" gradientUnits="userSpaceOnUse"><stop offset="0" stop-color="#17a6d7"/><stop offset="1" stop-color="#9d31fe"/></linearGradient></defs><g id="Layer_11" data-name="Layer 11"><path class="cls-1" d="M61,35.7a1.53,1.53,0,0,0-.74-1.24l-13-7.5v-15a1.54,1.54,0,0,0-.75-1.3L32.75,2.7a1.49,1.49,0,0,0-1.5,0L17.5,10.64a1.57,1.57,0,0,0-.75,1.3V27l-13,7.5A1.58,1.58,0,0,0,3,35.76V51.64a1.51,1.51,0,0,0,.75,1.3L17.5,60.88a1.57,1.57,0,0,0,1.5,0l13-7.51,13,7.51a1.46,1.46,0,0,0,1.19.12,2.85,2.85,0,0,0,.31-.12l13.75-7.94a1.51,1.51,0,0,0,.75-1.3S61,35.75,61,35.7ZM45.75,42,35,35.76l10.75-6.2,10.75,6.2ZM30.5,20.74V33.15L19.75,27V14.54ZM44.25,27,33.5,33.15V20.74l10.75-6.2Zm-26,2.61L29,35.76,18.25,42,7.5,35.76Zm1.5,15L30.5,38.36V50.77L19.75,57ZM32,5.73l10.75,6.21L32,18.14l-10.75-6.2ZM6,38.36l10.75,6.21V57L6,50.77Zm27.5,0,10.75,6.21V57L33.5,50.77ZM47.25,57V44.57L58,38.36V50.77Z"/></g></svg>