<?xml version="1.0" encoding="UTF-8" standalone="no"?> <svg width="512" height="512" viewBox="0 0 512 512" fill="none" xmlns="http://www.w3.org/2000/svg">
<path d="M456 64C444.661 64.0156 433.692 68.0385 425.031 75.3578C416.371 82.6772 410.576 92.822 408.67 104H144V68C143.992 60.5765 141.039 53.4593 135.79 48.2101C130.541 42.9608 123.424 40.0082 116 40H108C100.576 40.0082 93.4593 42.9608 88.2101 48.2101C82.9608 53.4593 80.0082 60.5765 80 68V104H16C13.8783 104 11.8434 104.843 10.3431 106.343C8.84285 107.843 8 109.878 8 112V472C8 474.122 8.84285 476.157 10.3431 477.657C11.8434 479.157 13.8783 480 16 480H456C468.726 479.986 480.927 474.925 489.926 465.926C498.925 456.927 503.986 444.726 504 432V112C503.986 99.2738 498.925 87.0726 489.926 78.0738C480.927 69.075 468.726 64.0135 456 64V64ZM96 68C96.0026 64.8182 97.2678 61.7675 99.5176 59.5176C101.768 57.2678 104.818 56.0026 108 56H116C119.182 56.0026 122.232 57.2678 124.482 59.5176C126.732 61.7675 127.997 64.8182 128 68V88H96V68ZM96 104H104V224C104 226.122 104.843 228.157 106.343 229.657C107.843 231.157 109.878 232 112 232C114.122 232 116.157 231.157 117.657 229.657C119.157 228.157 120 226.122 120 224V104H128V272H96V104ZM96 288H128V294.55L127.46 296H96.54L96 294.55V288ZM121.46 312L112 337.22L102.54 312H121.46ZM80.51 298.81L104.51 362.81C105.082 364.334 106.106 365.648 107.444 366.575C108.782 367.503 110.372 367.999 112 367.999C113.628 367.999 115.218 367.503 116.556 366.575C117.894 365.648 118.918 364.334 119.49 362.81L143.49 298.81C143.828 297.912 144.001 296.96 144 296V152H176V200C176 202.122 176.843 204.157 178.343 205.657C179.843 207.157 181.878 208 184 208H264V280H192C189.878 280 187.843 280.843 186.343 282.343C184.843 283.843 184 285.878 184 288V424H56V152H80V296C79.9987 296.96 80.1715 297.912 80.51 298.81V298.81ZM280 280V200C280 197.878 279.157 195.843 277.657 194.343C276.157 192.843 274.122 192 272 192H192V152H328V280H280ZM328 296V424H200V296H328ZM456 464H24V120H80V136H48C45.8783 136 43.8434 136.843 42.3431 138.343C40.8429 139.843 40 141.878 40 144V432C40 434.122 40.8429 436.157 42.3431 437.657C43.8434 439.157 45.8783 440 48 440H336C338.122 440 340.157 439.157 341.657 437.657C343.157 436.157 344 434.122 344 432V144C344 141.878 343.157 139.843 341.657 138.343C340.157 136.843 338.122 136 336 136H144V120H408V432C408 434.122 408.843 436.157 410.343 437.657C411.843 439.157 413.878 440 416 440C418.122 440 420.157 439.157 421.657 437.657C423.157 436.157 424 434.122 424 432C424 425.671 425.877 419.484 429.393 414.222C432.909 408.959 437.907 404.858 443.754 402.436C449.601 400.014 456.035 399.38 462.243 400.615C468.45 401.85 474.152 404.897 478.627 409.373C483.103 413.848 486.15 419.55 487.385 425.757C488.62 431.965 487.986 438.399 485.564 444.246C483.142 450.093 479.041 455.091 473.778 458.607C468.516 462.123 462.329 464 456 464ZM488 396.26C479.21 388.368 467.815 384.002 456.002 384C444.189 383.998 432.792 388.361 424 396.25V112C424 103.513 427.371 95.3737 433.373 89.3726C439.374 83.3714 447.513 80 456 80C464.487 80 472.626 83.3714 478.627 89.3726C484.629 95.3737 488 103.513 488 112V396.26Z" fill="url(#paint0_linear_1_2097)"/>
<path d="M104 256C104 258.122 104.843 260.157 106.343 261.657C107.843 263.157 109.878 264 112 264C114.122 264 116.157 263.157 117.657 261.657C119.157 260.157 120 258.122 120 256V248C120 245.878 119.157 243.843 117.657 242.343C116.157 240.843 114.122 240 112 240C109.878 240 107.843 240.843 106.343 242.343C104.843 243.843 104 245.878 104 248V256Z" fill="url(#paint1_linear_1_2097)"/>
<defs>
<linearGradient id="paint0_linear_1_2097" x1="25.896" y1="510.372" x2="523.977" y2="12.292" gradientUnits="userSpaceOnUse">
<stop stop-color="#003F8A"/>
<stop offset="0.518" stop-color="#00D7DF"/>
<stop offset="1" stop-color="#006DF0"/>
</linearGradient>
<linearGradient id="paint1_linear_1_2097" x1="-859.808" y1="10421.7" x2="10174.6" y2="3065.44" gradientUnits="userSpaceOnUse">
<stop stop-color="#003F8A"/>
<stop offset="0.518" stop-color="#00D7DF"/>
<stop offset="1" stop-color="#006DF0"/>
</linearGradient>
</defs>
</svg>
