<?xml version="1.0" encoding="UTF-8" standalone="no"?> <svg xmlns="http://www.w3.org/2000/svg" xmlns:xlink="http://www.w3.org/1999/xlink" viewBox="0 0 64 64"><defs><style>.cls-1{fill:url(#linear-gradient);}.cls-2{fill:url(#linear-gradient-2);}.cls-3{fill:url(#linear-gradient-3);}</style><linearGradient id="linear-gradient" x1="32.9" y1="40.5" x2="61" y2="40.5" gradientUnits="userSpaceOnUse"><stop offset="0" stop-color="#17a6d7"/><stop offset="1" stop-color="#9d31fe"/></linearGradient><linearGradient id="linear-gradient-2" x1="3" y1="40.5" x2="31.11" y2="40.5" xlink:href="#linear-gradient"/><linearGradient id="linear-gradient-3" x1="15.09" y1="19.94" x2="48.89" y2="19.94" xlink:href="#linear-gradient"/></defs><g id="Layer_14" data-name="Layer 14"><path class="cls-1" d="M61,22.08c-.41-4.61-7.16-4.43-7.3.17L53,32.17a3.51,3.51,0,0,0-4.83,1.71l-2.19,5a1.45,1.45,0,0,1-.44.58l-4.65,3.72a3.51,3.51,0,0,0-1,1.35l-2.61,6L35.9,50a1,1,0,0,0-1.31.52L33,54.25a1,1,0,0,0,.52,1.31l15.33,6.65a1,1,0,0,0,1.31-.52L51.75,58c.31-.8-.28-1.29-1-1.52a11.11,11.11,0,0,1,3.42-5l4.25-5.05a6.77,6.77,0,0,0,2.48-5.63ZM48.7,60,35.21,54.13,36,52.25,49.52,58.1Zm8.4-15.1A1.85,1.85,0,0,0,57,45l-4.25,5.05a12.67,12.67,0,0,0-3.78,5.61L39.08,51.4c.21-.33,2.71-6.67,3.05-6.6l4.66-3.73a3.55,3.55,0,0,0,1-1.34l2.19-5a1.51,1.51,0,0,1,2.78,1.2l-3.37,7.79a1,1,0,0,0,1.83.79l3.38-7.78a3.51,3.51,0,0,0,.2-2.12l.87-12.24A1.66,1.66,0,0,1,59,22.14l-.1,18.66A4.8,4.8,0,0,1,57.1,44.87Z"/><path class="cls-2" d="M29.42,50.54c-.57-1.2-1.85-.24-2.66.06l-2.61-6a3.51,3.51,0,0,0-1-1.35L18.46,39.5a1.54,1.54,0,0,1-.44-.57l-2.18-5A3.51,3.51,0,0,0,11,32.17l-.7-9.84A3.66,3.66,0,0,0,3,22.15l.1,18.52a6.82,6.82,0,0,0,2.48,5.7l4.25,5.05a11,11,0,0,1,3.41,5c-.69.23-1.3.72-1,1.52l1.61,3.71a1,1,0,0,0,.55.53,1,1,0,0,0,.76,0l15.33-6.65A1,1,0,0,0,31,54.25Zm-15,3.66a10.85,10.85,0,0,0-3.14-4.14L7,45A5,5,0,0,1,5.1,40.73L5,22.22a1.68,1.68,0,0,1,1.61-1.55,1.66,1.66,0,0,1,1.7,1.72l.87,12.17a3.46,3.46,0,0,0,.2,2.12l3.38,7.78a1,1,0,0,0,1.83-.79l-3.37-7.79A1.51,1.51,0,0,1,14,34.68l2.19,5a3.63,3.63,0,0,0,1,1.34l4.66,3.73c.35-.07,2.85,6.29,3.06,6.6l-9.85,4.27ZM15.3,60l-.81-1.87L28,52.25l.81,1.88Z"/><path class="cls-3" d="M39.72,34.94h0a17,17,0,0,0,6.47-5.88.94.94,0,0,0,.2-.33c5-7.59,2.18-18.62-5.43-23.12a.92.92,0,0,0-.27-.16A16.94,16.94,0,0,0,22,6.32c-.09,0-.19.09-.23.18a16.86,16.86,0,0,0-6.53,15.38,0,0,0,0,0,0,0C16.3,33.16,29.31,40.36,39.45,35.07A1.11,1.11,0,0,0,39.72,34.94Zm7.19-15a14.84,14.84,0,0,1-1.63,6.74c-1.55-2-2.94-4.74-1.82-7.1a3.76,3.76,0,0,0,.15-2.86c-.21-.52-.38-.67-2.62-2.52l-.44-.36a10.85,10.85,0,0,1-1.74-1.54c-.23-.46-.43-1.54.8-3.6a6.24,6.24,0,0,1,.83-1A14.89,14.89,0,0,1,46.91,19.91ZM33.64,5.09A23.22,23.22,0,0,0,32,8.92c-.42,1.22-.58,1.64-1,1.84-.75.37-1.87-.15-3.17-.76A13.7,13.7,0,0,1,24,7.34,14.84,14.84,0,0,1,33.64,5.09ZM22.39,8.53A15.93,15.93,0,0,0,27,11.82c1.6.74,3.24,1.53,4.9.73,1.18-.59,1.54-1.65,2-3a20.74,20.74,0,0,1,1.8-4.08h0a15.11,15.11,0,0,1,3,1.11,8.55,8.55,0,0,0-.79,1.08c-1.61,2.7-1.36,4.47-.87,5.48-.27.26,4.47,4,4.74,4.29s.07.74-.18,1.46c-1.46,3.16.41,7.11,2.62,9.56a14.87,14.87,0,0,1-4.69,4.31c-1.86-2.45-3.07-7.39-6.56-8.81-1-.36-1.76-.17-3.75.34a31,31,0,0,1-4.71,1c-.48-.69-.4-1.65-1.52-2.81a7.81,7.81,0,0,0-2-1.48,6.84,6.84,0,0,0-3.87-.47A14.76,14.76,0,0,1,22.39,8.53Zm-5.05,14a5,5,0,0,1,2.71.26,6.05,6.05,0,0,1,1.43,1.06,3.44,3.44,0,0,1,.81,1.5c1.1,2.88,2.23,2.12,7.4.87,1.85-.48,2.18-.54,2.59-.4,2.8,1.48,3.88,5.95,5.42,7.84C29.19,37.45,18.73,31.59,17.34,22.55Z"/></g></svg>