<?xml version="1.0" encoding="UTF-8" standalone="no"?> <svg xmlns="http://www.w3.org/2000/svg" xmlns:xlink="http://www.w3.org/1999/xlink" viewBox="0 0 64 64"><defs><style>.cls-1{fill:url(#linear-gradient);}.cls-2{fill:url(#linear-gradient-2);}</style><linearGradient id="linear-gradient" x1="3" y1="46.93" x2="61" y2="46.93" gradientUnits="userSpaceOnUse"><stop offset="0" stop-color="#17a6d7"/><stop offset="1" stop-color="#9d31fe"/></linearGradient><linearGradient id="linear-gradient-2" x1="28.55" y1="21.17" x2="61" y2="21.17" xlink:href="#linear-gradient"/></defs><g id="Layer_33" data-name="Layer 33"><path class="cls-1" d="M60.68,44.84a4.5,4.5,0,0,0-5.86-2.46L42.09,46.86a4.29,4.29,0,0,0-4.21-5h-7.2a2.24,2.24,0,0,1-1.07-.27l-6.9-3.65a4.32,4.32,0,0,0-2-.49h-8.9V33.86a1,1,0,0,0-1-1H4a1,1,0,0,0-1,1v24.5a1,1,0,0,0,1,1h6.81a1,1,0,0,0,1-1V56.07c2.78-.12,5.76.08,8.22,1.49L28.35,60a8.49,8.49,0,0,0,7.8,0l22.43-9.59A4.47,4.47,0,0,0,60.68,44.84ZM9.81,57.36H5V34.86H9.81Zm47.92-8.67L35.3,58.27A6.7,6.7,0,0,1,29,58.15L20.7,55.67c-2.67-1.5-5.89-1.71-8.89-1.6V39.41h8.9a2.35,2.35,0,0,1,1.07.26l6.9,3.65a4.21,4.21,0,0,0,2,.5h7.2a2.3,2.3,0,0,1,1.52,4l-1.69.59H26.78a1,1,0,0,0,0,2h11.1a4.21,4.21,0,0,0,2.49-.81l15.19-5.35A2.48,2.48,0,0,1,57.73,48.69Z"/><path class="cls-2" d="M32,27.62c-.26,8.07,5.17,11.72,11.36,11.75,2.43.07,8.51-.08,13.12-4.45,4.79-4.8,4.49-12.68,4.47-13a1,1,0,0,0-1-1c-.09,0-.77,0-1.79,0C60.54,10.45,50.54.74,40.06,3.41l-.07,0a15,15,0,0,0-8,24.19ZM30.6,17a14.06,14.06,0,0,0,4.83-.85c1.5-.55,3.06-1.11,3.58-2.66.39-1.16-.08-2.1-.62-3.2A18.44,18.44,0,0,1,37,6.76a13.75,13.75,0,0,1,2.31-1c.12,2.56,2,4.91,3.11,5.08.18.34,4.95-.28,5.62-.28.3.12.42.33.73,1,1,2.85,4.67,4.22,7.58,4.38a12.91,12.91,0,0,1-.22,5.36c-2.55-.34-6.31-2.68-9.53-1.38-.88.42-1.22,1-2.15,2.55A39,39,0,0,1,42.23,26a7.69,7.69,0,0,0-2.67-.81c-.45-.12-3,.29-3.77,1.22A14.78,14.78,0,0,0,33.31,26,13,13,0,0,1,30.6,17Zm21.66,5.17c-4.37,1.29-8,5.73-8.94,10a9.07,9.07,0,0,0-4.85-5,5.14,5.14,0,0,1,1-.1,2.93,2.93,0,0,1,1.39.42c2.49,1.06,2.7.2,5.2-3.95.65-1.14,1.22-2,1.41-2C48.79,21.09,51.21,21.82,52.26,22.21ZM34,28.08c4,.39,7.72,2.78,8.11,7.61L39.4,32.61a1,1,0,1,0-1.49,1.33L40.66,37C35.91,36.08,34,32.14,34,28.08ZM55.1,33.51c-2.63,2.63-6.5,3.49-9,3.77l5.58-5.58a1,1,0,1,0-1.41-1.41l-5.58,5.57c.6-6.79,4.49-11.68,11.7-12.64A21.13,21.13,0,0,1,59,23C58.91,25.08,58.36,30.25,55.1,33.51ZM52.75,8.8a13.07,13.07,0,0,1,3.1,5c-2.11-.28-4.55-1.13-5.28-3.19a3.43,3.43,0,0,0-1.76-1.94c-.48-.21-.74-.18-3.25.06l-.51,0a10.42,10.42,0,0,1-2,.13c-.86-.18-1.8-2.28-1.79-3.67A13,13,0,0,1,52.75,8.8Zm-18.4,0c.29-.29.6-.56.92-.83a20.38,20.38,0,0,0,1.33,3.25c.48,1,.63,1.33.52,1.67-.22.64-1.27,1-2.37,1.43a12.06,12.06,0,0,1-3.86.71A12.84,12.84,0,0,1,34.35,8.8Z"/></g></svg>