<?xml version="1.0" encoding="UTF-8" standalone="no"?> <svg xmlns="http://www.w3.org/2000/svg" xmlns:xlink="http://www.w3.org/1999/xlink" viewBox="0 0 64 64"><defs><style>.cls-1{fill:url(#linear-gradient);}.cls-2{fill:url(#linear-gradient-2);}.cls-3{fill:url(#linear-gradient-3);}.cls-4{fill:url(#linear-gradient-4);}</style><linearGradient id="linear-gradient" x1="5.8" y1="32.01" x2="58.2" y2="32.01" gradientUnits="userSpaceOnUse"><stop offset="0" stop-color="#17a6d7"/><stop offset="1" stop-color="#9d31fe"/></linearGradient><linearGradient id="linear-gradient-2" x1="24.16" y1="24.64" x2="29.71" y2="24.64" xlink:href="#linear-gradient"/><linearGradient id="linear-gradient-3" x1="34.29" y1="24.64" x2="39.84" y2="24.64" xlink:href="#linear-gradient"/><linearGradient id="linear-gradient-4" x1="29.23" y1="31.54" x2="34.77" y2="31.54" xlink:href="#linear-gradient"/></defs><g id="Layer_20" data-name="Layer 20"><path class="cls-1" d="M57.78,49.36a11.68,11.68,0,0,0-11.27-7.92H38.37V37.36a13,13,0,0,0,2.49-1.75h8.7A3.44,3.44,0,0,0,53,32.17V23.94A20.9,20.9,0,0,0,46.85,9.09C33.54-4.24,11,5.58,11,24.46v7.71a3.44,3.44,0,0,0,3.44,3.44h8.69a12.35,12.35,0,0,0,2.5,1.75v4.08H17.49A11.68,11.68,0,0,0,6.22,49.36a9.11,9.11,0,0,0,8.66,11.7H49.12A9.1,9.1,0,0,0,57.78,49.36ZM31,56.11l-5.23-9.67A9.24,9.24,0,0,0,31,49ZM33,49a9.21,9.21,0,0,0,5.23-2.55L33,56.11ZM27,35.85l-.05,0a9.86,9.86,0,0,1-5.76-8.75V20.51c4.13-.24,6.93-2,8.56-4.32,2.54,2.4,7.67,4.14,13,4.34v6.54C42.88,34.52,33.78,39.26,27,35.85ZM44.77,22.74a2,2,0,1,1,0,3.92ZM13,32.17V24.46c0-17.12,20.38-26,32.43-13.95A18.87,18.87,0,0,1,51,23.94v8.23a1.45,1.45,0,0,1-1.44,1.44H42.65a11.27,11.27,0,0,0,2-4.95,4,4,0,1,0,.13-7.92,9.55,9.55,0,0,0,0-1.08,1,1,0,0,0-1-1.11c-5.36,0-11-1.86-13-4.21.38-1.13,1.68-4.75-.25-4.88a1,1,0,0,0-1,1,8.53,8.53,0,0,1-.69,3.47c-1.33,2.93-4.35,4.62-8.62,4.62a1,1,0,0,0-1,1v1.19a4,4,0,1,0,.13,7.92,11.18,11.18,0,0,0,2,4.95h-6.9A1.45,1.45,0,0,1,13,32.17Zm6.23-5.51a2,2,0,1,1,0-3.92ZM32,39a13.36,13.36,0,0,0,4.37-.74v4.22a1,1,0,0,0,1,1h1.36C36.89,45,34.56,47.26,32,47.06c-2.57.2-4.88-2.1-6.73-3.62h1.36a1,1,0,0,0,1-1V38.23A13.54,13.54,0,0,0,32,39ZM9.21,56.2c-4.15-5.68,1.66-13,8.28-12.76h4.39l8.44,15.62H14.88A7,7,0,0,1,9.21,56.2Zm45.58,0a7,7,0,0,1-5.67,2.86H33.68l8.44-15.62h4.39C53.13,43.21,58.94,50.52,54.79,56.2Z"/><path class="cls-2" d="M29.71,25.53a2.78,2.78,0,0,0-5.55,0,1,1,0,0,0,2,0,.78.78,0,0,1,1.55,0A1,1,0,0,0,29.71,25.53Z"/><path class="cls-3" d="M35.29,26.53a1,1,0,0,0,1-1,.78.78,0,0,1,1.55,0,1,1,0,0,0,2,0,2.78,2.78,0,1,0-5.55,0A1,1,0,0,0,35.29,26.53Z"/><path class="cls-4" d="M34.77,30.66a1,1,0,0,0-2,0,.77.77,0,0,1-1.54,0,1,1,0,0,0-2,0A2.77,2.77,0,0,0,34.77,30.66Z"/></g></svg>