<?xml version="1.0" encoding="UTF-8" standalone="no"?> <svg xmlns="http://www.w3.org/2000/svg" xmlns:xlink="http://www.w3.org/1999/xlink" viewBox="0 0 64 64"><defs><style>.cls-1{fill:url(#linear-gradient);}.cls-2{fill:url(#linear-gradient-2);}.cls-3{fill:url(#linear-gradient-3);}.cls-4{fill:url(#linear-gradient-4);}.cls-5{fill:url(#linear-gradient-5);}.cls-6{fill:url(#linear-gradient-6);}.cls-7{fill:url(#linear-gradient-7);}.cls-8{fill:url(#linear-gradient-8);}</style><linearGradient id="linear-gradient" x1="17.85" y1="38.82" x2="46.12" y2="38.82" gradientUnits="userSpaceOnUse"><stop offset="0" stop-color="#17a6d7"/><stop offset="1" stop-color="#9d31fe"/></linearGradient><linearGradient id="linear-gradient-2" x1="31" y1="6.91" x2="33" y2="6.91" xlink:href="#linear-gradient"/><linearGradient id="linear-gradient-3" x1="46.36" y1="14.13" x2="52.49" y2="14.13" xlink:href="#linear-gradient"/><linearGradient id="linear-gradient-4" x1="52.75" y1="31.55" x2="60.53" y2="31.55" xlink:href="#linear-gradient"/><linearGradient id="linear-gradient-5" x1="46.36" y1="48.98" x2="52.49" y2="48.98" xlink:href="#linear-gradient"/><linearGradient id="linear-gradient-6" x1="11.51" y1="48.98" x2="17.64" y2="48.98" xlink:href="#linear-gradient"/><linearGradient id="linear-gradient-7" x1="3.47" y1="31.55" x2="11.25" y2="31.55" xlink:href="#linear-gradient"/><linearGradient id="linear-gradient-8" x1="11.51" y1="14.13" x2="17.63" y2="14.13" xlink:href="#linear-gradient"/></defs><g id="Layer_22" data-name="Layer 22"><path class="cls-1" d="M35.06,17c-13.2-2.82-22.49,12.59-13.85,22.91a17.07,17.07,0,0,1,4.05,11.45v2.92a6.74,6.74,0,0,0,13.48,0V51.34A17.8,17.8,0,0,1,43,39.65C49.54,31.75,45.28,19,35.06,17Zm1.68,37.28c-.2,6.27-9.28,6.26-9.48,0V52.34h9.48Zm4.7-15.87a20,20,0,0,0-4.69,12H33V38.29a5.66,5.66,0,0,0,4.66-5.57,1,1,0,0,0-2,0,3.66,3.66,0,0,1-7.32,0,1,1,0,0,0-2,0A5.66,5.66,0,0,0,31,38.29V50.34H27.25A19,19,0,0,0,22.73,38.6a12.15,12.15,0,0,1-2.86-7.82c-.17-7.54,7.41-13.63,14.78-11.84C43.39,20.72,47.06,31.61,41.44,38.39Z"/><path class="cls-2" d="M32,10.83a1,1,0,0,0,1-1V4a1,1,0,0,0-2,0V9.83A1,1,0,0,0,32,10.83Z"/><path class="cls-3" d="M50.78,11.36l-4.12,4.12a1,1,0,0,0,1.41,1.42l4.12-4.12A1,1,0,0,0,50.78,11.36Z"/><path class="cls-4" d="M59.55,30.55H53.73a1,1,0,0,0,0,2h5.82A1,1,0,0,0,59.55,30.55Z"/><path class="cls-5" d="M48.07,46.21a1,1,0,0,0-1.41,1.41l4.11,4.12a1,1,0,0,0,1.42-1.41Z"/><path class="cls-6" d="M15.93,46.21l-4.12,4.12a1,1,0,0,0,1.41,1.41l4.12-4.12A1,1,0,0,0,15.93,46.21Z"/><path class="cls-7" d="M10.27,30.55H4.45a1,1,0,0,0,0,2h5.82A1,1,0,0,0,10.27,30.55Z"/><path class="cls-8" d="M13.22,11.36a1,1,0,0,0-1.41,1.42l4.12,4.12a1,1,0,0,0,.71.29,1,1,0,0,0,.7-1.71Z"/></g></svg>