<?xml version="1.0" encoding="UTF-8" standalone="no"?> <svg xmlns="http://www.w3.org/2000/svg" xmlns:xlink="http://www.w3.org/1999/xlink" viewBox="0 0 64 64"><defs><style>.cls-1{fill:url(#linear-gradient);}.cls-2{fill:url(#linear-gradient-2);}</style><linearGradient id="linear-gradient" x1="10.57" y1="25.71" x2="53.51" y2="25.71" gradientUnits="userSpaceOnUse"><stop offset="0" stop-color="#17a6d7"/><stop offset="1" stop-color="#9d31fe"/></linearGradient><linearGradient id="linear-gradient-2" x1="23.79" y1="56.94" x2="40.21" y2="56.94" xlink:href="#linear-gradient"/></defs><g id="Layer_9" data-name="Layer 9"><path class="cls-1" d="M53.51,23.51A21.54,21.54,0,0,0,32,2C8.52,2.34,2.21,34.18,23.79,43.4v2H22a2,2,0,0,0,0,4H42a2,2,0,0,0,0-4H40.21v-2A21.45,21.45,0,0,0,53.51,23.51ZM27.79,45.42V35.63a2,2,0,0,0-4,0V39c-16-8.63-10-32.78,8.21-33,18.21.19,24.17,24.35,8.21,33V35.63a2,2,0,0,0-4,0v9.79Z"/><path class="cls-2" d="M38.21,51.87H25.79a2,2,0,0,0-2,2V60a2,2,0,0,0,2,2H38.21a2,2,0,0,0,2-2V53.87A2,2,0,0,0,38.21,51.87Zm-2,6.13H27.79V55.87h8.42Z"/></g></svg>