<?xml version="1.0" encoding="utf-8"?>
<svg viewBox="0 0 500 500" xmlns="http://www.w3.org/2000/svg" xmlns:bx="https://boxy-svg.com">
  <rect x="111.18" y="61.304" width="100.422" height="178.881" style="fill: rgb(104, 88, 255);" transform="matrix(0.999932, 0.01167, -0.573525, 0.993375, 39.666805, 170.077942)"/>
  <rect x="110.072" y="70.168" width="99.423" height="204.746" style="fill: rgb(104, 88, 255);" transform="matrix(0.525639, -0.850708, 0.567814, 0.983482, 101.08535, 112.063683)"/>
  <rect x="107.675" y="30.881" width="97.258" height="90.107" style="fill: rgb(104, 88, 255);" transform="matrix(0.435555, 0.900162, -1.110911, 0, 137.99585, 249.149231)"/>
  <path d="M 644.998 151.697 L 693.165 235.126 L 596.83 235.126 L 644.998 151.697 Z" style="fill: rgb(104, 88, 255);" transform="matrix(1, -0.000083, 0.000083, 1, -395.069153, -151.888504)" bx:shape="triangle 596.83 151.697 96.335 83.429 0.5 0 1@90021b5c"/>
  <path d="M 644.998 151.697 L 693.165 235.126 L 596.83 235.126 L 644.998 151.697 Z" style="fill: rgb(104, 88, 255);" transform="matrix(1, -0.000083, 0.000083, 1, -597.17981, 198.427246)" bx:shape="triangle 596.83 151.697 96.335 83.429 0.5 0 1@90021b5c"/>
  <path d="M 644.998 151.697 L 693.165 235.126 L 596.83 235.126 L 644.998 151.697 Z" style="fill: rgb(104, 88, 255);" transform="matrix(1, -0.000083, 0.000083, 1, -192.385666, 198.465485)" bx:shape="triangle 596.83 151.697 96.335 83.429 0.5 0 1@90021b5c"/>
  <rect x="110.668" y="30.4" width="99.96" height="88.709" style="fill: rgb(104, 88, 255);" transform="matrix(0.999801, 0.019951, -0.570888, 0.988807, 106.785622, 53.499306)"/>
  <rect x="108.506" y="54.019" width="98.007" height="157.625" style="fill: rgb(104, 88, 255);" transform="matrix(0.465711, 0.884937, -1.130024, 0, 414.318695, 251.012848)"/>
  <rect x="112.191" y="26.885" width="101.335" height="78.454" style="fill: rgb(104, 88, 255);" transform="matrix(0.49641, -0.868088, 0.578739, 1.002405, 282.880768, 424.756165)"/>
  <rect x="108.34" y="72.012" width="97.858" height="210.129" style="fill: rgb(104, 88, 255);" transform="matrix(0.446765, 0.894651, -1.117754, 0, 482.440247, 249.033875)"/>
  <path d="M 644.998 151.697 L 693.165 235.126 L 596.83 235.126 L 644.998 151.697 Z" style="fill: rgb(104, 88, 255);" transform="matrix(-0.499928, 0.866067, -0.866067, -0.499928, 954.712158, -49.019989)" bx:shape="triangle 596.83 151.697 96.335 83.429 0.5 0 1@90021b5c"/>
  <rect x="110.668" y="30.4" width="99.96" height="88.709" style="fill: rgb(104, 88, 255);" transform="matrix(-0.517179, 0.855877, -0.570888, -0.988807, 525.913757, 282.90506)"/>
</svg>