<?xml version="1.0" encoding="UTF-8" standalone="no"?> <svg xmlns="http://www.w3.org/2000/svg" xmlns:xlink="http://www.w3.org/1999/xlink" viewBox="0 0 64 64"><defs><style>.cls-1{fill:url(#linear-gradient);}.cls-2{fill:url(#linear-gradient-2);}.cls-3{fill:url(#linear-gradient-3);}.cls-4{fill:url(#linear-gradient-4);}.cls-5{fill:url(#linear-gradient-5);}</style><linearGradient id="linear-gradient" x1="2.47" y1="31.99" x2="61.5" y2="31.99" gradientUnits="userSpaceOnUse"><stop offset="0" stop-color="#17a6d7"/><stop offset="1" stop-color="#9d31fe"/></linearGradient><linearGradient id="linear-gradient-2" x1="34.87" y1="18.23" x2="47.38" y2="18.23" xlink:href="#linear-gradient"/><linearGradient id="linear-gradient-3" x1="23.78" y1="42.73" x2="26.78" y2="42.73" xlink:href="#linear-gradient"/><linearGradient id="linear-gradient-4" x1="37.22" y1="42.71" x2="40.22" y2="42.71" xlink:href="#linear-gradient"/><linearGradient id="linear-gradient-5" x1="26.18" y1="51.26" x2="37.82" y2="51.26" xlink:href="#linear-gradient"/></defs><g id="Layer_38" data-name="Layer 38"><path class="cls-1" d="M61.39,35.79a29.14,29.14,0,0,0-4.15-17.54,0,0,0,0,0,0,0A29.46,29.46,0,0,0,11.87,12a1.42,1.42,0,0,0-.31.29,29.67,29.67,0,0,0-6.5,9.25,1.17,1.17,0,0,0-.16.34C2.44,27.32.74,38.32,5.42,42.37c2.3,2,5.68,1.94,8.93,1.52v7.53A8.59,8.59,0,0,0,22.93,60H41.07a8.59,8.59,0,0,0,8.58-8.58V43.89c6.18,1,11.24-.78,11.73-8A.13.13,0,0,0,61.39,35.79Zm-2.9-2a7.64,7.64,0,0,1-2.92-12.34A26.21,26.21,0,0,1,58.49,33.75ZM28.75,9.64c0,7.7-10.25,10.49-14.17,3.91A26.4,26.4,0,0,1,28.36,7.26,7.56,7.56,0,0,1,28.75,9.64ZM9.6,29a5.64,5.64,0,0,1-4.08,5.38,26.23,26.23,0,0,1,1.6-10A5.59,5.59,0,0,1,9.6,29ZM41.07,57H22.93a5.59,5.59,0,0,1-5.58-5.58V40.25a9.13,9.13,0,0,1,9.12-9.12H37.53a9.13,9.13,0,0,1,9.12,9.12V51.42A5.59,5.59,0,0,1,41.07,57Zm8.58-16.13A12.17,12.17,0,0,0,37.53,28.13H26.47A12.17,12.17,0,0,0,14.35,40.87c-4.58.52-7.4.6-8.45-3.48,7.49-1.65,9.15-11.95,2.43-15.79a27.08,27.08,0,0,1,4.06-5.91c6.85,9.6,21.78,2.83,19-8.68A26.49,26.49,0,0,1,54,18.74c-6.2,5.45-3.67,16,4.23,18.07C57.36,41.37,54.5,41.45,49.65,40.87Z"/><path class="cls-2" d="M41.13,12a6.27,6.27,0,0,0-6.26,6.25c.3,8.28,12.22,8.28,12.51,0A6.27,6.27,0,0,0,41.13,12Zm0,9.51a3.26,3.26,0,0,1,0-6.51A3.26,3.26,0,0,1,41.13,21.51Z"/><path class="cls-3" d="M26.78,45.85V39.6a1.5,1.5,0,0,0-3,0v6.25A1.5,1.5,0,0,0,26.78,45.85Z"/><path class="cls-4" d="M38.72,38.1a1.5,1.5,0,0,0-1.5,1.5v6.25a1.5,1.5,0,0,0,3,0V39.6A1.5,1.5,0,0,0,38.72,38.1Z"/><path class="cls-5" d="M36.32,48.92A1.49,1.49,0,0,0,34.87,50a6,6,0,0,1-2.87.57A6,6,0,0,1,29.13,50a1.5,1.5,0,0,0-2.95.38c0,2.2,2.92,3.19,5.82,3.19s5.82-1,5.82-3.19A1.5,1.5,0,0,0,36.32,48.92Z"/></g></svg>