<?xml version="1.0" encoding="UTF-8" standalone="no"?> <svg xmlns="http://www.w3.org/2000/svg" xmlns:xlink="http://www.w3.org/1999/xlink" viewBox="0 0 64 64"><defs><style>.cls-1{fill:url(#linear-gradient);}.cls-2{fill:url(#linear-gradient-2);}.cls-3{fill:url(#linear-gradient-3);}.cls-4{fill:url(#linear-gradient-4);}.cls-5{fill:url(#linear-gradient-5);}.cls-6{fill:url(#linear-gradient-6);}.cls-7{fill:url(#linear-gradient-7);}.cls-8{fill:url(#linear-gradient-8);}.cls-9{fill:url(#linear-gradient-9);}</style><linearGradient id="linear-gradient" x1="20.76" y1="32" x2="43.24" y2="32" gradientUnits="userSpaceOnUse"><stop offset="0" stop-color="#17a6d7"/><stop offset="1" stop-color="#9d31fe"/></linearGradient><linearGradient id="linear-gradient-2" x1="27.71" y1="9.95" x2="36.29" y2="9.95" xlink:href="#linear-gradient"/><linearGradient id="linear-gradient-3" x1="42.39" y1="15.92" x2="53.76" y2="15.92" xlink:href="#linear-gradient"/><linearGradient id="linear-gradient-4" x1="47.11" x2="61" xlink:href="#linear-gradient"/><linearGradient id="linear-gradient-5" x1="42.39" y1="48.07" x2="53.76" y2="48.07" xlink:href="#linear-gradient"/><linearGradient id="linear-gradient-6" x1="27.71" y1="54.05" x2="36.29" y2="54.05" xlink:href="#linear-gradient"/><linearGradient id="linear-gradient-7" x1="10.24" y1="48.08" x2="21.61" y2="48.08" xlink:href="#linear-gradient"/><linearGradient id="linear-gradient-8" x1="3" x2="16.89" xlink:href="#linear-gradient"/><linearGradient id="linear-gradient-9" x1="10.24" y1="15.93" x2="21.61" y2="15.93" xlink:href="#linear-gradient"/></defs><g id="Layer_14" data-name="Layer 14"><path class="cls-1" d="M43.14,39.56a1,1,0,0,0,.07-.68,11.48,11.48,0,0,0-7.32-8.14,6.39,6.39,0,1,0-7.78,0,11.5,11.5,0,0,0-7.3,8.06.94.94,0,0,0,0,.55,1,1,0,0,0,.28.48,14.68,14.68,0,0,0,21.92,0A.86.86,0,0,0,43.14,39.56ZM27.61,25.67A4.39,4.39,0,1,1,32,30.07h0A4.4,4.4,0,0,1,27.61,25.67Zm4.39,17a12.69,12.69,0,0,1-9.13-3.88A9.5,9.5,0,0,1,32,32.07H32a9.49,9.49,0,0,1,9.1,6.77A12.69,12.69,0,0,1,32,42.72Z"/><path class="cls-2" d="M31,11.44v4.45a1,1,0,0,0,2,0V11.44a4.29,4.29,0,1,0-2,0ZM32,5a2.29,2.29,0,1,1-2.29,2.29A2.3,2.3,0,0,1,32,5Z"/><path class="cls-3" d="M43.39,21.61a1,1,0,0,0,.71-.29l3.14-3.15a4.29,4.29,0,1,0-1.41-1.41L42.68,19.9a1,1,0,0,0,0,1.42A1,1,0,0,0,43.39,21.61Zm4.47-8.7a2.29,2.29,0,0,1,1.62-.67,2.26,2.26,0,0,1,1.61.67,2.29,2.29,0,0,1,0,3.23,2.33,2.33,0,0,1-3.23,0A2.29,2.29,0,0,1,47.86,12.91Z"/><path class="cls-4" d="M56.71,27.71A4.29,4.29,0,0,0,52.56,31H48.11a1,1,0,0,0,0,2h4.45a4.28,4.28,0,1,0,4.15-5.29Zm0,6.58A2.29,2.29,0,1,1,59,32,2.29,2.29,0,0,1,56.71,34.29Z"/><path class="cls-5" d="M47.24,45.83,44.1,42.68a1,1,0,0,0-1.42,1.42l3.15,3.14a4.27,4.27,0,0,0,.61,5.27,4.31,4.31,0,0,0,6.07,0,4.28,4.28,0,0,0-5.27-6.68Zm3.85,5.26a2.29,2.29,0,0,1-3.23,0,2.26,2.26,0,0,1-.67-1.61,2.29,2.29,0,0,1,.67-1.62,2.28,2.28,0,0,1,3.23,0,2.29,2.29,0,0,1,.67,1.62A2.26,2.26,0,0,1,51.09,51.09Z"/><path class="cls-6" d="M33,52.56V48.11a1,1,0,0,0-2,0v4.45a4.29,4.29,0,1,0,2,0ZM32,59a2.29,2.29,0,1,1,2.29-2.29A2.3,2.3,0,0,1,32,59Z"/><path class="cls-7" d="M19.9,42.68l-3.14,3.15a4.29,4.29,0,1,0,1.41,1.41l3.15-3.14a1,1,0,0,0-1.42-1.42Zm-3.76,8.41a2.33,2.33,0,0,1-3.23,0,2.29,2.29,0,0,1,0-3.23,2.26,2.26,0,0,1,1.61-.67,2.29,2.29,0,0,1,1.62,3.9Z"/><path class="cls-8" d="M11.44,33h4.45a1,1,0,0,0,0-2H11.44a4.29,4.29,0,1,0,0,2ZM7.29,34.29A2.29,2.29,0,1,1,9.57,32,2.3,2.3,0,0,1,7.29,34.29Z"/><path class="cls-9" d="M14.52,18.81a4.3,4.3,0,0,0,2.24-.64l3.14,3.15a1,1,0,0,0,1.42,0,1,1,0,0,0,0-1.42l-3.15-3.14a4.27,4.27,0,1,0-3.65,2Zm-1.61-5.9a2.29,2.29,0,0,1,3.9,1.61,2.29,2.29,0,1,1-4.57,0A2.26,2.26,0,0,1,12.91,12.91Z"/></g></svg>