<?xml version="1.0" encoding="UTF-8" standalone="no"?> <svg xmlns="http://www.w3.org/2000/svg" xmlns:xlink="http://www.w3.org/1999/xlink" viewBox="0 0 64 64"><defs><style>.cls-1{fill:url(#linear-gradient);}.cls-2{fill:url(#linear-gradient-2);}.cls-3{fill:url(#linear-gradient-3);}.cls-4{fill:url(#linear-gradient-4);}</style><linearGradient id="linear-gradient" x1="38.52" y1="15.72" x2="61" y2="15.72" gradientUnits="userSpaceOnUse"><stop offset="0" stop-color="#17a6d7"/><stop offset="1" stop-color="#9d31fe"/></linearGradient><linearGradient id="linear-gradient-2" x1="3" y1="48.28" x2="25.48" y2="48.28" xlink:href="#linear-gradient"/><linearGradient id="linear-gradient-3" x1="12" y1="17.21" x2="39.51" y2="17.21" xlink:href="#linear-gradient"/><linearGradient id="linear-gradient-4" x1="29.49" y1="46.79" x2="57" y2="46.79" xlink:href="#linear-gradient"/></defs><g id="Layer_21" data-name="Layer 21"><path class="cls-1" d="M61,22.6a11.52,11.52,0,0,0-7.32-8.15,6.38,6.38,0,1,0-7.78,0,11.46,11.46,0,0,0-7.3,8.06,1,1,0,0,0,0,.45,1,1,0,0,0,.3.59,14.69,14.69,0,0,0,21.92-.06,1.4,1.4,0,0,0,.16-.26A1,1,0,0,0,61,22.6ZM45.37,9.39a4.39,4.39,0,1,1,4.41,4.39h0A4.39,4.39,0,0,1,45.37,9.39Zm4.39,17.05a12.67,12.67,0,0,1-9.13-3.88,9.53,9.53,0,0,1,9.1-6.78h.06a9.51,9.51,0,0,1,9.1,6.78A12.69,12.69,0,0,1,49.76,26.44Z"/><path class="cls-2" d="M18.13,47a6.39,6.39,0,1,0-7.78,0,11.48,11.48,0,0,0-7.3,8,1.05,1.05,0,0,0,0,.7,1.08,1.08,0,0,0,.23.34,14.69,14.69,0,0,0,21.93,0,1,1,0,0,0,.23-.45,1,1,0,0,0,0-.45A11.46,11.46,0,0,0,18.13,47ZM9.85,42a4.39,4.39,0,1,1,4.41,4.39h0A4.4,4.4,0,0,1,9.85,42Zm4.39,17a12.69,12.69,0,0,1-9.13-3.88,9.5,9.5,0,0,1,9.1-6.77h.06a9.5,9.5,0,0,1,9.1,6.78A12.72,12.72,0,0,1,14.24,59Z"/><path class="cls-3" d="M32.22,14.88h0a1,1,0,1,0,1.41,1.41l5.59-5.58a1,1,0,0,0,.21-1.09,1,1,0,0,0-.26-.37L33.63,3.71a1,1,0,1,0-1.41,1.41L36.09,9h-7.3A16.81,16.81,0,0,0,12,25.79V30a1,1,0,0,0,2,0V25.79A14.8,14.8,0,0,1,28.79,11h7.3Z"/><path class="cls-4" d="M56,33a1,1,0,0,0-1,1v4.21A14.8,14.8,0,0,1,40.21,53h-7.3l3.87-3.88h0a1,1,0,1,0-1.41-1.41l-5.59,5.58a1,1,0,0,0-.21,1.09,1,1,0,0,0,.26.37l5.54,5.54a1,1,0,0,0,.71.29,1,1,0,0,0,.7-.29,1,1,0,0,0,0-1.41L32.91,55h7.3A16.81,16.81,0,0,0,57,38.21V34A1,1,0,0,0,56,33Z"/></g></svg>