<?xml version="1.0" encoding="UTF-8" standalone="no"?> <svg xmlns="http://www.w3.org/2000/svg" xmlns:xlink="http://www.w3.org/1999/xlink" viewBox="0 0 64 64"><defs><style>.cls-1{fill:url(#linear-gradient);}</style><linearGradient id="linear-gradient" x1="2" y1="31.99" x2="62.01" y2="31.99" gradientUnits="userSpaceOnUse"><stop offset="0" stop-color="#17a6d7"/><stop offset="1" stop-color="#9d31fe"/></linearGradient></defs><g id="Layer_12" data-name="Layer 12"><path class="cls-1" d="M58.89,40.53C65.92,19,45-1.92,23.47,5.11,6.16-3.29-3.29,6.17,5.11,23.47-1.92,45,19.05,65.92,40.53,58.89,56.38,66.77,67.79,59.24,58.89,40.53ZM56.21,32A24.23,24.23,0,0,1,40.79,54.55C29.11,48.72,15.27,34.88,9.45,23.21,19.4-1.37,55.74,5.15,56.21,32ZM7.46,7.47c1.93-1.93,5.87-1.94,10.9-.16a28.62,28.62,0,0,0-11,11.05C5.53,13.33,5.54,9.39,7.46,7.47ZM7.79,32A24.22,24.22,0,0,1,8,28.8,87.34,87.34,0,0,0,35.2,56,24.27,24.27,0,0,1,7.79,32ZM56.54,56.53c-1.93,1.93-5.87,1.94-10.9.15a28.53,28.53,0,0,0,11-11C58.47,50.67,58.46,54.61,56.54,56.53Z"/></g></svg>