<?xml version="1.0" encoding="UTF-8" standalone="no"?> <svg xmlns="http://www.w3.org/2000/svg" xmlns:xlink="http://www.w3.org/1999/xlink" viewBox="0 0 64 64"><defs><style>.cls-1{fill:url(#linear-gradient);}.cls-2{fill:url(#linear-gradient-2);}</style><linearGradient id="linear-gradient" x1="13.2" y1="32" x2="50.84" y2="32" gradientUnits="userSpaceOnUse"><stop offset="0" stop-color="#17a6d7"/><stop offset="1" stop-color="#9d31fe"/></linearGradient><linearGradient id="linear-gradient-2" x1="19.74" y1="20.26" x2="44.33" y2="20.26" xlink:href="#linear-gradient"/></defs><g id="Layer_36" data-name="Layer 36"><path class="cls-1" d="M50.84,21.34A18.86,18.86,0,0,0,32,2.5c-17.62,0-25.53,22.29-11.91,33.42V60a1.51,1.51,0,0,0,.84,1.35,1.49,1.49,0,0,0,1.57-.16l9.5-7.3,9.5,7.3a1.49,1.49,0,0,0,1.57.16A1.51,1.51,0,0,0,43.91,60V35.92A18.92,18.92,0,0,0,50.84,21.34Zm-34.68,0A15.86,15.86,0,0,1,32,5.5C47.11,5.51,53.61,25,41.51,34h0a15.87,15.87,0,0,1-19,0h0A15.7,15.7,0,0,1,16.16,21.34ZM40.91,57l-8-6.15a1.49,1.49,0,0,0-1.82,0l-8,6.15v-19a18.88,18.88,0,0,0,17.82,0Z"/><path class="cls-2" d="M23.88,30.27a1.51,1.51,0,0,0,2.18,1.58l6-3.14,6,3.14a1.48,1.48,0,0,0,1.58-.11,1.52,1.52,0,0,0,.6-1.47L39,23.62l4.84-4.71a1.5,1.5,0,0,0-.83-2.56l-6.68-1-3-6.05a1.5,1.5,0,0,0-2.69,0l-3,6.05-6.68,1a1.5,1.5,0,0,0-.83,2.56L25,23.62Zm.58-11.39,4.45-.65A1.48,1.48,0,0,0,30,17.41l2-4,2,4a1.47,1.47,0,0,0,1.12.82l4.46.65L36.39,22A1.5,1.5,0,0,0,36,23.35l.76,4.44c-.48-.19-4.2-2.41-4.68-2.27-.45-.14-4.21,2.09-4.68,2.26l.76-4.43A1.47,1.47,0,0,0,27.68,22Z"/></g></svg>