<?xml version="1.0" encoding="UTF-8" standalone="no"?> <svg xmlns="http://www.w3.org/2000/svg" xmlns:xlink="http://www.w3.org/1999/xlink" viewBox="0 0 64 64"><defs><style>.cls-1{fill:url(#linear-gradient);}.cls-2{fill:url(#linear-gradient-2);}</style><linearGradient id="linear-gradient" x1="2" y1="35.9" x2="54.2" y2="35.9" gradientUnits="userSpaceOnUse"><stop offset="0" stop-color="#17a6d7"/><stop offset="1" stop-color="#9d31fe"/></linearGradient><linearGradient id="linear-gradient-2" x1="42.41" y1="11.77" x2="62" y2="11.77" xlink:href="#linear-gradient"/></defs><g id="Layer_80" data-name="Layer 80"><path class="cls-1" d="M52.2,25.59a2,2,0,0,0-2,2V58H6V13.8H36.41a2,2,0,0,0,0-4H4a2,2,0,0,0-2,2V60a2,2,0,0,0,2,2H52.2a2,2,0,0,0,2-2V27.59A2,2,0,0,0,52.2,25.59Z"/><path class="cls-2" d="M52.2,2a9.8,9.8,0,0,0-9.79,9.8c.54,13,19.05,13,19.59,0A9.8,9.8,0,0,0,52.2,2Zm0,15.59c-7.65-.24-7.65-11.35,0-11.59C59.86,6.24,59.86,17.35,52.2,17.59Z"/></g></svg>