<?xml version="1.0" encoding="UTF-8" standalone="no"?> <svg xmlns="http://www.w3.org/2000/svg" xmlns:xlink="http://www.w3.org/1999/xlink" viewBox="0 0 64 64"><defs><style>.cls-1{fill:url(#linear-gradient);}</style><linearGradient id="linear-gradient" x1="2" y1="32" x2="62" y2="32" gradientUnits="userSpaceOnUse"><stop offset="0" stop-color="#17a6d7"/><stop offset="1" stop-color="#9d31fe"/></linearGradient></defs><g id="Layer_15" data-name="Layer 15"><path class="cls-1" d="M60,18H46V4a2,2,0,0,0-2-2H4A2,2,0,0,0,2,4V44a2,2,0,0,0,2,2H18V60a2,2,0,0,0,2,2H60a2,2,0,0,0,2-2V20A2,2,0,0,0,60,18ZM6,42V6H42V18H20a2,2,0,0,0-2,2V42ZM42,22V42H22V22ZM58,58H22V46H44a2,2,0,0,0,2-2V22H58Z"/></g></svg>