<?xml version="1.0" encoding="UTF-8" standalone="no"?> <svg width="512" height="512" viewBox="0 0 512 512" fill="none" xmlns="http://www.w3.org/2000/svg">
<path d="M478 152H288V128C288 123.582 284.418 120 280 120H264V117.634C264 110.116 270.116 104 277.634 104H392C409.645 104 424 89.645 424 72C424 54.355 409.645 40 392 40H245.654C229.303 40 216 53.303 216 69.69C216 79.786 207.786 88 197.69 88H192V72C192 67.582 188.418 64 184 64H128C123.582 64 120 67.582 120 72H96C91.582 72 88 75.582 88 80V112C88 116.418 91.582 120 96 120H120C120 124.418 123.582 128 128 128H184C188.418 128 192 124.418 192 120V104H197.69C216.608 104 232 88.608 232 69.654C232 62.125 238.125 56 245.654 56H392C400.822 56 408 63.178 408 72C408 80.822 400.822 88 392 88H277.634C261.293 88 248 101.293 248 117.634V120H232C227.582 120 224 123.582 224 128V152H34C24.075 152 16 160.075 16 170V438C16 447.925 24.075 456 34 456H478C487.925 456 496 447.925 496 438V170C496 160.075 487.925 152 478 152ZM120 104H104V88H120V104ZM176 112H136V80H176V112ZM240 136H272V152H240V136ZM128 440H34C32.897 440 32 439.103 32 438V170C32 168.897 32.897 168 34 168H128V440ZM480 438C480 439.103 479.103 440 478 440H144V168H478C479.103 168 480 168.897 480 170V438ZM80 344C102.056 344 120 326.056 120 304C120 281.944 102.056 264 80 264C57.944 264 40 281.944 40 304C40 326.056 57.944 344 80 344ZM80 280C93.233 280 104 290.767 104 304C104 317.233 93.233 328 80 328C66.767 328 56 317.233 56 304C56 290.767 66.767 280 80 280ZM48 192C48 187.582 51.582 184 56 184H104C108.418 184 112 187.582 112 192C112 196.418 108.418 200 104 200H56C51.582 200 48 196.418 48 192ZM48 232C48 227.582 51.582 224 56 224H104C108.418 224 112 227.582 112 232C112 236.418 108.418 240 104 240H56C51.582 240 48 236.418 48 232ZM112 416C112 420.418 108.418 424 104 424H56C51.582 424 48 420.418 48 416C48 411.582 51.582 408 56 408H104C108.418 408 112 411.582 112 416ZM112 376C112 380.418 108.418 384 104 384H56C51.582 384 48 380.418 48 376C48 371.582 51.582 368 56 368H104C108.418 368 112 371.582 112 376ZM208 192C208 196.418 204.418 200 200 200H176V224C176 228.418 172.418 232 168 232C163.582 232 160 228.418 160 224V192C160 187.582 163.582 184 168 184H200C204.418 184 208 187.582 208 192ZM464 192V224C464 228.418 460.418 232 456 232C451.582 232 448 228.418 448 224V200H424C419.582 200 416 196.418 416 192C416 187.582 419.582 184 424 184H456C460.418 184 464 187.582 464 192ZM208 416C208 420.418 204.418 424 200 424H168C163.582 424 160 420.418 160 416V384C160 379.582 163.582 376 168 376C172.418 376 176 379.582 176 384V408H200C204.418 408 208 411.582 208 416ZM464 384V416C464 420.418 460.418 424 456 424H424C419.582 424 416 420.418 416 416C416 411.582 419.582 408 424 408H448V384C448 379.582 451.582 376 456 376C460.418 376 464 379.582 464 384ZM394.51 221.49C385.152 212.134 369.927 212.133 360.569 221.49L236.118 345.941C235.24 346.819 234.578 347.89 234.185 349.068L223.469 381.217L213.49 391.196C210.365 394.32 210.365 399.385 213.49 402.509C215.052 404.071 217.099 404.852 219.147 404.852C221.195 404.852 223.242 404.071 224.804 402.509L234.783 392.53L266.932 381.814C268.11 381.421 269.181 380.76 270.059 379.881L394.51 255.431C403.867 246.074 403.867 230.848 394.51 221.49ZM260.081 367.233L243.11 372.89L248.767 355.919L298.344 306.342L309.658 317.656L260.081 367.233ZM320.971 306.343L309.657 295.029L354.912 249.774L366.226 261.088L320.971 306.343ZM383.196 244.118L377.539 249.775L366.225 238.461L371.882 232.804C375.002 229.685 380.077 229.686 383.195 232.804C386.315 235.923 386.315 240.999 383.196 244.118Z" fill="url(#paint0_linear_92_26003)"/>
<defs>
<linearGradient id="paint0_linear_92_26003" x1="61.8105" y1="491.254" x2="459.149" y2="93.9156" gradientUnits="userSpaceOnUse">
<stop stop-color="#5EBCE5"/>
<stop offset="0.5457" stop-color="#B678E6"/>
<stop offset="1" stop-color="#E25B61"/>
</linearGradient>
</defs>
</svg>
