<?xml version="1.0" encoding="UTF-8" standalone="no"?> <svg xmlns="http://www.w3.org/2000/svg" xmlns:xlink="http://www.w3.org/1999/xlink" viewBox="0 0 64 64"><defs><style>.cls-1{fill:url(#linear-gradient);}.cls-2{fill:url(#linear-gradient-2);}.cls-3{fill:url(#linear-gradient-3);}</style><linearGradient id="linear-gradient" x1="3" y1="32" x2="61" y2="32" gradientUnits="userSpaceOnUse"><stop offset="0" stop-color="#17a6d7"/><stop offset="1" stop-color="#9d31fe"/></linearGradient><linearGradient id="linear-gradient-2" x1="28.06" y1="51.14" x2="35.94" y2="51.14" xlink:href="#linear-gradient"/><linearGradient id="linear-gradient-3" x1="14.84" y1="25.44" x2="49.16" y2="25.44" xlink:href="#linear-gradient"/></defs><g id="Layer_10" data-name="Layer 10"><path class="cls-1" d="M55.71,5.3H8.29A5.29,5.29,0,0,0,3,10.59V40.3a5.3,5.3,0,0,0,5.29,5.29H24.57A12.12,12.12,0,0,1,12.5,56.7a1,1,0,1,0-.08,2h39a1,1,0,1,0,.08-2A12.12,12.12,0,0,1,39.43,45.59H55.71A5.3,5.3,0,0,0,61,40.3V10.59A5.29,5.29,0,0,0,55.71,5.3ZM44.29,56.7H19.71a14.12,14.12,0,0,0,6.86-11.11H37.43A14.12,14.12,0,0,0,44.29,56.7ZM59,40.3a3.3,3.3,0,0,1-3.29,3.29H8.29A3.3,3.3,0,0,1,5,40.3V10.59A3.3,3.3,0,0,1,8.29,7.3H55.71A3.3,3.3,0,0,1,59,10.59Z"/><path class="cls-2" d="M32,55.12a4,4,0,0,0,0-7.95A4,4,0,0,0,32,55.12Zm0-5.95a2,2,0,0,1,0,3.95A2,2,0,0,1,32,49.17Z"/><path class="cls-3" d="M45.18,23.78a4,4,0,0,0-3.84,3H35.11a4.77,4.77,0,0,0-4.77-3.46l1.9-6.41a3.2,3.2,0,1,0-1.87-.71L28.05,24a4.79,4.79,0,0,0-1.9,2.13l-3.37-3.37a4.28,4.28,0,1,0-1.42,1.42l4.4,4.38A4.7,4.7,0,0,0,27,31.33l-1.72,1.73a3.81,3.81,0,1,0,1.27,1.55l2.1-2.09a4.81,4.81,0,0,0,4.59-.46l1.07,2.83a3.22,3.22,0,0,0,2.23,5.5c4.5-.17,4.06-6.82-.42-6.36l-1.38-3.67a4.65,4.65,0,0,0,.53-1.6h6.08a4,4,0,1,0,3.84-5ZM32.37,12.5a1.2,1.2,0,0,1,0,2.4A1.2,1.2,0,0,1,32.37,12.5Zm5.36,24.69a1.2,1.2,0,0,1-2.4,0A1.2,1.2,0,0,1,37.73,37.19ZM16.84,20.52a2.29,2.29,0,0,1,4.58,0A2.29,2.29,0,0,1,16.84,20.52ZM23.06,38a1.82,1.82,0,0,1,0-3.63A1.82,1.82,0,0,1,23.06,38Zm7.46-7.07a2.81,2.81,0,0,1,0-5.61A2.81,2.81,0,0,1,30.52,30.9Zm14.66-1.16a2,2,0,0,1,0-4A2,2,0,0,1,45.18,29.74Z"/></g></svg>