<?xml version="1.0" encoding="UTF-8" standalone="no"?> <svg xmlns="http://www.w3.org/2000/svg" xmlns:xlink="http://www.w3.org/1999/xlink" viewBox="0 0 64 64"><defs><style>.cls-1{fill:url(#linear-gradient);}</style><linearGradient id="linear-gradient" x1="2.5" y1="32.01" x2="61.5" y2="32.01" gradientUnits="userSpaceOnUse"><stop offset="0" stop-color="#17a6d7"/><stop offset="1" stop-color="#9d31fe"/></linearGradient></defs><g id="Layer_8" data-name="Layer 8"><path class="cls-1" d="M41.5,41.43c-.86-.2-1.74-.36-2.63-.5V37.7a12.67,12.67,0,0,0,2.18-1.56h8.51A4,4,0,0,0,53.5,32.2V24a21.36,21.36,0,0,0-6.3-15.2C33.6-4.85,10.48,5.15,10.5,24.49V32.2a4,4,0,0,0,3.94,3.94h8.5a13,13,0,0,0,2.19,1.56v3.23c-.86.13-1.71.29-2.54.48l-.09,0C10.7,44.08,2.5,51.52,2.5,60A1.5,1.5,0,0,0,4,61.53H60A1.5,1.5,0,0,0,61.5,60C61.5,51.52,53.3,44.08,41.5,41.43ZM26.82,43.72a1.53,1.53,0,0,0,1.31-1.49V36.78a1.53,1.53,0,0,0-.64-1.22,11.86,11.86,0,0,1-2.82-1.88,9,9,0,0,1-2.94-6.58V21A11.14,11.14,0,0,0,29.89,17c2.88,2.41,7.94,3.81,12.38,4.07V27.1a9.39,9.39,0,0,1-5.45,8.29,1.52,1.52,0,0,0-1,1.39v5.45a1.63,1.63,0,0,0,1.7,1.55l-1.79,1.47a6,6,0,0,1-7.56,0l-1.79-1.47Zm-9.42-19a1.42,1.42,0,0,1,1.33-1.43v2.88A1.47,1.47,0,0,1,17.4,24.73ZM45.27,23.3a1.45,1.45,0,0,1,0,2.88ZM13.5,32.2V24.49c0-10.36,8.19-18.89,18.26-19C41.81,5.14,50.7,13.94,50.5,24V32.2a.94.94,0,0,1-.94.94h-6a11.68,11.68,0,0,0,1.49-3.95c5.84-.05,6-8.62.2-8.91v-.7a1.5,1.5,0,0,0-1.5-1.5c-5,0-10.35-1.7-12.39-3.81.44-1.55,1.68-5-.84-5.28a1.5,1.5,0,0,0-1.5,1.5,7.75,7.75,0,0,1-.71,3.35l-.06.13c-1.28,2.59-4.12,4.11-8,4.11a1.51,1.51,0,0,0-1.51,1.51v.69c-5.84.29-5.64,8.86.2,8.91a11.5,11.5,0,0,0,1.5,3.95h-6A.94.94,0,0,1,13.5,32.2Zm9.08,12.29,3.74,3.08a9,9,0,0,0,11.36,0l3.74-3.08c9.38,2.25,16,7.71,17,14H5.61C6.53,52.2,13.2,46.74,22.58,44.49Z"/></g></svg>