<?xml version="1.0" encoding="UTF-8" standalone="no"?> <svg xmlns="http://www.w3.org/2000/svg" xmlns:xlink="http://www.w3.org/1999/xlink" viewBox="0 0 64 64"><defs><style>.cls-1{fill:url(#linear-gradient);}.cls-2{fill:url(#linear-gradient-2);}.cls-3{fill:url(#linear-gradient-3);}.cls-4{fill:url(#linear-gradient-4);}</style><linearGradient id="linear-gradient" x1="7.08" y1="31.68" x2="56.92" y2="31.68" gradientUnits="userSpaceOnUse"><stop offset="0" stop-color="#17a6d7"/><stop offset="1" stop-color="#9d31fe"/></linearGradient><linearGradient id="linear-gradient-2" x1="16.79" y1="24.65" x2="26.38" y2="24.65" xlink:href="#linear-gradient"/><linearGradient id="linear-gradient-3" x1="37.62" y1="24.64" x2="47.21" y2="24.64" xlink:href="#linear-gradient"/><linearGradient id="linear-gradient-4" x1="23.59" y1="40.42" x2="40.41" y2="40.42" xlink:href="#linear-gradient"/></defs><g id="Layer_13" data-name="Layer 13"><path class="cls-1" d="M56.92,27.42C57.2,14,45.39,2.22,32,2.5A25,25,0,0,0,7.08,27.42V59.34a1.5,1.5,0,0,0,1.5,1.5c2.95,0,4.19-3,5.29-5.6,4.35-11.15,4.27,6.19,10.33,5.6,2.95,0,4.19-3,5.29-5.6.73-1.77,1.56-3.76,2.52-3.76s1.78,2,2.51,3.76c1.1,2.63,2.34,5.6,5.29,5.6s4.19-3,5.29-5.6c.73-1.77,1.57-3.76,2.52-3.76s1.78,2,2.51,3.76c1.1,2.63,2.34,5.6,5.29,5.6a1.5,1.5,0,0,0,1.5-1.5Zm-9.3,21.06c-2.95,0-4.2,3-5.29,5.6-1.93,5-3.11,5-5,0C36.2,51.46,35,48.48,32,48.48s-4.2,3-5.29,5.6c-.74,1.77-1.57,3.76-2.52,3.76s-1.78-2-2.52-3.76c-1.1-2.62-2.34-5.6-5.29-5.6-3.86,0-4.74,5-6.31,7.85V27.42C10,8,33.86-1.84,47.5,11.92a21.79,21.79,0,0,1,6.42,15.5V56.33C52.36,53.43,51.47,48.5,47.62,48.48Z"/><path class="cls-2" d="M26.38,24.65c0-11.78-9.55-11.78-9.59,0S26.34,36.43,26.38,24.65ZM21.59,30.5c-.45,0-1.8-2.08-1.8-5.85s1.35-5.85,1.8-5.85,1.79,1.88,1.79,5.85S21.94,30.5,21.59,30.5Z"/><path class="cls-3" d="M42.41,15.8c-3.15,0-4.79,4.45-4.79,8.85,0,11.78,9.55,11.78,9.59,0C47.21,20.25,45.56,15.8,42.41,15.8Zm0,14.7c-.35,0-1.79-1.88-1.79-5.85s1.44-5.85,1.79-5.85,1.8,2.07,1.8,5.85S42.86,30.5,42.41,30.5Z"/><path class="cls-4" d="M32,35.2c-4.79,0-8.41,2.26-8.41,5.24.08,6.94,16.74,6.94,16.82,0C40.41,37.46,36.79,35.2,32,35.2Zm0,7.48c-3.25,0-5.41-1.34-5.41-2.24S28.75,38.2,32,38.2s5.41,1.35,5.41,2.24S35.25,42.68,32,42.68Z"/></g></svg>