<?xml version="1.0" encoding="UTF-8" standalone="no"?> <svg xmlns="http://www.w3.org/2000/svg" xmlns:xlink="http://www.w3.org/1999/xlink" viewBox="0 0 64 64"><defs><style>.cls-1{fill:url(#linear-gradient);}.cls-2{fill:url(#linear-gradient-2);}.cls-3{fill:url(#linear-gradient-3);}.cls-4{fill:url(#linear-gradient-4);}</style><linearGradient id="linear-gradient" x1="2.5" y1="32" x2="54.86" y2="32" gradientUnits="userSpaceOnUse"><stop offset="0" stop-color="#17a6d7"/><stop offset="1" stop-color="#9d31fe"/></linearGradient><linearGradient id="linear-gradient-2" x1="25.07" y1="15.4" x2="33.46" y2="15.4" xlink:href="#linear-gradient"/><linearGradient id="linear-gradient-3" x1="40.89" y1="32" x2="49.35" y2="32" xlink:href="#linear-gradient"/><linearGradient id="linear-gradient-4" x1="53.07" y1="32" x2="61.46" y2="32" xlink:href="#linear-gradient"/></defs><g id="Layer_10" data-name="Layer 10"><path class="cls-1" d="M54.86,49.94a1.54,1.54,0,0,0-.69-1.12L27.63,32,54.17,15.18a1.52,1.52,0,0,0,.28-2.31h0C36.8-7.88,2.5,4.74,2.5,32s34.4,39.9,52,19.06A1.57,1.57,0,0,0,54.86,49.94ZM32,58.5A26.53,26.53,0,0,1,5.5,32c0-23.68,29.19-35.46,45.56-18.4L24,30.73a1.5,1.5,0,0,0,0,2.54l27,17.13A26.45,26.45,0,0,1,32,58.5Z"/><path class="cls-2" d="M29.27,19.63a4.23,4.23,0,0,0,0-8.46A4.23,4.23,0,0,0,29.27,19.63Zm0-5.46a1.23,1.23,0,0,1,0,2.46A1.23,1.23,0,0,1,29.27,14.17Z"/><path class="cls-3" d="M40.89,32a4.23,4.23,0,0,0,8.46,0A4.23,4.23,0,0,0,40.89,32Zm5.46,0a1.23,1.23,0,0,1-2.46,0A1.23,1.23,0,0,1,46.35,32Z"/><path class="cls-4" d="M57.27,27.77a4.23,4.23,0,0,0,0,8.46A4.23,4.23,0,0,0,57.27,27.77Zm0,5.46a1.23,1.23,0,0,1,0-2.46A1.23,1.23,0,0,1,57.27,33.23Z"/></g></svg>